<svg width="80" height="80" viewBox="0 0 80 80" fill="none" xmlns="http://www.w3.org/2000/svg">
  <!-- Background circle -->
  <circle cx="40" cy="40" r="40" fill="#1B4F72"/>
  
  <!-- Stream pipes representation -->
  <g transform="translate(15, 25)">
    <!-- Data input -->
    <circle cx="5" cy="15" r="3" fill="#5DADE2"/>
    
    <!-- Pipeline segments -->
    <rect x="10" y="13" width="8" height="4" rx="2" fill="#AED6F1"/>
    <rect x="20" y="13" width="8" height="4" rx="2" fill="#85C1E9"/>
    <rect x="30" y="13" width="8" height="4" rx="2" fill="#5DADE2"/>
    <rect x="40" y="13" width="8" height="4" rx="2" fill="#3498DB"/>
    
    <!-- Data output/visualization -->
    <rect x="50" y="10" width="4" height="10" rx="1" fill="#2E86AB"/>
    <rect x="52" y="8" width="4" height="14" rx="1" fill="#A23B72"/>
    <rect x="54" y="6" width="4" height="18" rx="1" fill="#F18F01"/>
    
    <!-- Processing nodes -->
    <circle cx="15" cy="5" r="2" fill="#E74C3C"/>
    <circle cx="25" cy="5" r="2" fill="#F39C12"/>
    <circle cx="35" cy="5" r="2" fill="#27AE60"/>
    <circle cx="45" cy="5" r="2" fill="#8E44AD"/>
    
    <!-- Connection lines -->
    <line x1="15" y1="7" x2="15" y2="13" stroke="#BDC3C7" stroke-width="1"/>
    <line x1="25" y1="7" x2="25" y2="13" stroke="#BDC3C7" stroke-width="1"/>
    <line x1="35" y1="7" x2="35" y2="13" stroke="#BDC3C7" stroke-width="1"/>
    <line x1="45" y1="7" x2="45" y2="13" stroke="#BDC3C7" stroke-width="1"/>
  </g>
  
  <!-- Apache feather (simplified) -->
  <path d="M20 60 Q25 55 30 60 Q35 65 40 60 Q45 55 50 60" stroke="#F4D03F" stroke-width="2" fill="none"/>
</svg>
